<svg width="33" height="18" viewBox="0 0 33 18" fill="none" xmlns="http://www.w3.org/2000/svg">
<path d="M7.16671 17L28.75 17C30.4529 17 31.8334 15.8061 31.8334 14.3333L31.8334 3.66666C31.8334 2.1939 30.4529 0.999996 28.75 0.999996L7.16671 0.999998C5.46383 0.999998 4.08338 2.19391 4.08338 3.66667L4.08338 14.3333C4.08338 15.8061 5.46383 17 7.16671 17Z" stroke="black" stroke-width="2" stroke-linecap="round" stroke-linejoin="round"/>
<path d="M4.08337 11.6667L1.77087 11.6667C1.56643 11.6667 1.37037 11.5965 1.22581 11.4715C1.08125 11.3465 1.00004 11.1769 1.00004 11.0001L1.00004 7.00008C1.00004 6.82327 1.08125 6.6537 1.22581 6.52868C1.37037 6.40365 1.56643 6.33341 1.77087 6.33341L4.08337 6.33341L4.08337 11.6667Z" stroke="black" stroke-width="2" stroke-linecap="round" stroke-linejoin="round"/>
</svg>
