<svg width="6" height="11" viewBox="0 0 6 11" fill="none" xmlns="http://www.w3.org/2000/svg">
<path d="M0.205987 10.7847C0.270848 10.853 0.347901 10.9071 0.432731 10.944C0.517561 10.981 0.608503 11 0.700346 11C0.792189 11 0.883131 10.981 0.967961 10.944C1.05279 10.9071 1.12984 10.853 1.1947 10.7847L5.83664 5.91335C5.88843 5.85912 5.92951 5.7947 5.95754 5.72379C5.98557 5.65287 6 5.57685 6 5.50008C6 5.4233 5.98557 5.34728 5.95754 5.27637C5.92951 5.20545 5.88843 5.14103 5.83664 5.0868L1.1947 0.215429C0.920992 -0.0718118 0.479701 -0.0718118 0.205988 0.215429C-0.0677241 0.50267 -0.0677242 0.965773 0.205988 1.25301L4.25023 5.50301L0.200402 9.753C-0.067724 10.0344 -0.067725 10.5033 0.205987 10.7847Z" fill="black"/>
</svg>
