<svg width="33" height="18" viewBox="0 0 33 18" fill="none" xmlns="http://www.w3.org/2000/svg">
<path d="M7.16659 17L28.7499 17C30.4528 17 31.8333 15.8061 31.8333 14.3333L31.8333 3.66666C31.8333 2.1939 30.4528 0.999996 28.7499 0.999996L7.16659 0.999998C5.46371 0.999998 4.08325 2.19391 4.08325 3.66667L4.08326 14.3333C4.08326 15.8061 5.46371 17 7.16659 17Z" stroke="black" stroke-width="2" stroke-linecap="round" stroke-linejoin="round"/>
<path d="M4.08325 11.6666L1.77075 11.6666C1.56631 11.6666 1.37025 11.5964 1.22569 11.4714C1.08113 11.3463 0.999914 11.1768 0.999914 11L0.999914 6.99996C0.999914 6.82315 1.08113 6.65358 1.22569 6.52855C1.37024 6.40353 1.56631 6.33329 1.77075 6.33329L4.08325 6.33329L4.08325 11.6666Z" stroke="black" stroke-width="2" stroke-linecap="round" stroke-linejoin="round"/>
</svg>
