<svg width="5" height="9" viewBox="0 0 5 9" fill="none" xmlns="http://www.w3.org/2000/svg">
<path d="M0.171657 8.43131C0.225708 8.48466 0.289918 8.52699 0.36061 8.55586C0.431302 8.58474 0.507086 8.59961 0.583623 8.59961C0.660159 8.59961 0.735943 8.58474 0.806635 8.55586C0.877327 8.52699 0.941536 8.48466 0.995587 8.43131L4.86387 4.62299C4.90702 4.58059 4.94126 4.53023 4.96462 4.47479C4.98798 4.41936 5 4.35992 5 4.2999C5 4.23988 4.98798 4.18045 4.96462 4.12501C4.94126 4.06957 4.90702 4.01921 4.86387 3.97682L0.995588 0.168494C0.767494 -0.0560643 0.399752 -0.0560643 0.171658 0.168494C-0.0564356 0.393052 -0.0564356 0.755094 0.171658 0.979652L3.54186 4.30219L0.167003 7.62474C-0.0564356 7.84471 -0.0564364 8.21134 0.171657 8.43131Z" fill="white"/>
</svg>
