<svg width="5" height="14" viewBox="0 0 5 14" fill="none" xmlns="http://www.w3.org/2000/svg">
<path d="M0.171657 13.43C0.225708 13.515 0.289918 13.5824 0.36061 13.6284C0.431302 13.6744 0.507086 13.6981 0.583623 13.6981C0.660159 13.6981 0.735943 13.6744 0.806635 13.6284C0.877327 13.5824 0.941536 13.515 0.995587 13.43L4.86387 7.36378C4.90702 7.29624 4.94126 7.21602 4.96462 7.12772C4.98798 7.03941 5 6.94474 5 6.84913C5 6.75353 4.98798 6.65886 4.96462 6.57055C4.94126 6.48224 4.90702 6.40203 4.86387 6.33449L0.995588 0.268286C0.767494 -0.089409 0.399752 -0.089409 0.171658 0.268285C-0.0564356 0.62598 -0.0564356 1.20267 0.171658 1.56037L3.54186 6.85278L0.167003 12.1452C-0.0564356 12.4956 -0.0564364 13.0796 0.171657 13.43Z" fill="white"/>
</svg>
