<svg width="6" height="11" viewBox="0 0 6 11" fill="none" xmlns="http://www.w3.org/2000/svg">
<path d="M5.79401 0.215275C5.72915 0.147036 5.6521 0.0928956 5.56727 0.0559551C5.48244 0.0190147 5.3915 0 5.29965 0C5.20781 0 5.11687 0.0190147 5.03204 0.0559551C4.94721 0.0928956 4.87016 0.147036 4.8053 0.215275L0.163358 5.08665C0.111574 5.14088 0.070491 5.2053 0.0424599 5.27621C0.0144287 5.34713 0 5.42315 0 5.49992C0 5.5767 0.0144287 5.65272 0.0424599 5.72363C0.070491 5.79455 0.111574 5.85897 0.163358 5.9132L4.8053 10.7846C5.07901 11.0718 5.5203 11.0718 5.79401 10.7846C6.06773 10.4973 6.06773 10.0342 5.79401 9.74699L1.74977 5.49699L5.7996 1.247C6.06772 0.965619 6.06773 0.496654 5.79401 0.215275Z" fill="black"/>
</svg>
