<svg width="23" height="13" viewBox="0 0 23 13" fill="none" xmlns="http://www.w3.org/2000/svg">
<path d="M5.20019 11.8972L19.9 11.8972C21.0598 11.8972 22 11.084 22 10.081L22 2.81617C22 1.81311 21.0598 0.999969 19.9 0.99997L5.20019 0.999971C4.04041 0.999971 3.10022 1.81311 3.10022 2.81617L3.10022 10.081C3.10022 11.084 4.04041 11.8972 5.20019 11.8972Z" stroke="black" stroke-width="2" stroke-linecap="round" stroke-linejoin="round"/>
<path d="M3.10006 8.2648L1.52508 8.2648C1.38584 8.2648 1.25231 8.21697 1.15385 8.13182C1.0554 8.04667 1.00008 7.93118 1.00008 7.81076L1.00008 5.08646C1.00008 4.96604 1.0554 4.85055 1.15385 4.7654C1.25231 4.68025 1.38584 4.63241 1.52508 4.63241L3.10006 4.63241L3.10006 8.2648Z" stroke="black" stroke-width="2" stroke-linecap="round" stroke-linejoin="round"/>
</svg>
