<svg width="12" height="21" viewBox="0 0 12 21" fill="none" xmlns="http://www.w3.org/2000/svg">
<path d="M0.411973 20.589C0.541695 20.7193 0.6958 20.8227 0.86546 20.8932C1.03512 20.9637 1.217 21 1.40069 21C1.58438 21 1.76626 20.9637 1.93592 20.8932C2.10558 20.8227 2.25968 20.7193 2.38941 20.589L11.6733 11.2891C11.7769 11.1856 11.859 11.0626 11.9151 10.9272C11.9711 10.7918 12 10.6467 12 10.5001C12 10.3536 11.9711 10.2084 11.9151 10.0731C11.859 9.93768 11.7769 9.8147 11.6733 9.71117L2.38941 0.411275C1.84198 -0.137094 0.9594 -0.137094 0.411975 0.411275C-0.13545 0.959644 -0.13545 1.84375 0.411975 2.39212L8.50045 10.5057L0.400804 18.6194C-0.135449 19.1565 -0.135452 20.0518 0.411973 20.589Z" fill="#3DC0DE"/>
</svg>
