<svg width="15" height="15" viewBox="0 0 15 15" fill="none" xmlns="http://www.w3.org/2000/svg">
<path d="M11.6731 12.2543L8.10125 8.68177C7.33487 9.22662 6.39177 9.46367 5.45885 9.34593C4.52593 9.2282 3.67128 8.76427 3.0643 8.0461C2.45732 7.32792 2.14229 6.40792 2.18167 5.46843C2.22104 4.52893 2.61193 3.63851 3.27688 2.97364C3.94165 2.30849 4.83206 1.91737 5.77163 1.87783C6.71119 1.83829 7.63132 2.1532 8.34962 2.76015C9.06793 3.3671 9.53197 4.22178 9.64977 5.15477C9.76757 6.08775 9.53053 7.03095 8.98563 7.79739L12.5575 11.3699L11.6738 12.2536L11.6731 12.2543V12.2543ZM5.92813 3.12489C5.35317 3.12476 4.79573 3.32281 4.34974 3.68568C3.90375 4.04856 3.59647 4.55406 3.47968 5.11704C3.36288 5.68001 3.4437 6.26604 3.70852 6.77638C3.97335 7.28672 4.40599 7.69019 4.93355 7.91879C5.46111 8.14739 6.05135 8.18717 6.60481 8.03141C7.15827 7.87565 7.64113 7.53387 7.97203 7.06367C8.30293 6.59347 8.46164 6.02359 8.42143 5.45003C8.38121 4.87648 8.14453 4.33432 7.75125 3.91489L8.12938 4.28989L7.70313 3.86489L7.69563 3.85739C7.46411 3.62445 7.18868 3.43976 6.88528 3.31403C6.58188 3.18829 6.25655 3.124 5.92813 3.12489V3.12489Z" fill="#878787"/>
</svg>
