<svg width="12" height="14" viewBox="0 0 12 14" fill="none" xmlns="http://www.w3.org/2000/svg">
<path d="M11.588 0.258011C11.4583 0.176225 11.3042 0.111337 11.1345 0.0670633C10.9649 0.0227895 10.783 0 10.5993 0C10.4156 0 10.2337 0.0227895 10.0641 0.0670633C9.89442 0.111337 9.74031 0.176225 9.61059 0.258011L0.326717 6.09644C0.223149 6.16144 0.140982 6.23864 0.0849197 6.32364C0.0288573 6.40863 0 6.49974 0 6.59176C0 6.68377 0.0288573 6.77489 0.0849197 6.85988C0.140982 6.94487 0.223149 7.02208 0.326717 7.08708L9.61059 12.9255C10.158 13.2698 11.0406 13.2698 11.588 12.9255C12.1355 12.5812 12.1355 12.0262 11.588 11.6819L3.49955 6.58825L11.5992 1.49455C12.1354 1.15731 12.1355 0.595249 11.588 0.258011Z" fill="white"/>
</svg>
