<svg width="12" height="21" viewBox="0 0 12 21" fill="none" xmlns="http://www.w3.org/2000/svg">
<path d="M11.588 0.41098C11.4583 0.280705 11.3042 0.177346 11.1345 0.106823C10.9649 0.0363008 10.783 0 10.5993 0C10.4156 0 10.2337 0.0363008 10.0641 0.106823C9.89442 0.177346 9.74032 0.280705 9.61059 0.41098L0.326717 9.71087C0.223149 9.8144 0.140982 9.93738 0.0849197 10.0728C0.0288573 10.2082 0 10.3533 0 10.4999C0 10.6464 0.0288573 10.7916 0.0849197 10.9269C0.140982 11.0623 0.223149 11.1853 0.326717 11.2888L9.61059 20.5887C10.158 21.1371 11.0406 21.1371 11.588 20.5887C12.1355 20.0404 12.1355 19.1562 11.588 18.6079L3.49955 10.4943L11.5992 2.38063C12.1354 1.84345 12.1355 0.948157 11.588 0.41098Z" fill="white"/>
</svg>
