<svg width="15" height="15" viewBox="0 0 15 15" fill="none" xmlns="http://www.w3.org/2000/svg">
<path d="M11.6732 12.2544L8.10135 8.68189C7.33497 9.22674 6.39186 9.46379 5.45894 9.34606C4.52602 9.22832 3.67138 8.76439 3.06439 8.04622C2.45741 7.32805 2.14239 6.40804 2.18176 5.46855C2.22113 4.52905 2.61203 3.63863 3.27697 2.97376C3.94174 2.30861 4.83215 1.9175 5.77172 1.87795C6.71128 1.83841 7.63141 2.15332 8.34971 2.76027C9.06802 3.36722 9.53206 4.2219 9.64986 5.15489C9.76766 6.08788 9.53062 7.03107 8.98572 7.79751L12.5576 11.37L11.6738 12.2538L11.6732 12.2544V12.2544ZM5.92822 3.12501C5.35326 3.12488 4.79582 3.32293 4.34983 3.68581C3.90385 4.04868 3.59657 4.55419 3.47977 5.11716C3.36297 5.68013 3.44379 6.26616 3.70862 6.7765C3.97344 7.28685 4.40608 7.69031 4.93364 7.91891C5.46121 8.14752 6.05144 8.18729 6.6049 8.03153C7.15837 7.87577 7.64122 7.534 7.97212 7.0638C8.30302 6.5936 8.46173 6.02371 8.42152 5.45016C8.3813 4.8766 8.14462 4.33444 7.75135 3.91501L8.12947 4.29001L7.70322 3.86501L7.69572 3.85751C7.46421 3.62457 7.18877 3.43988 6.88537 3.31415C6.58197 3.18841 6.25664 3.12412 5.92822 3.12501V3.12501Z" fill="#878787"/>
</svg>
