<svg width="14" height="14" viewBox="0 0 14 14" fill="none" xmlns="http://www.w3.org/2000/svg">
<circle cx="7" cy="7" r="7" fill="#EF4948"/>
<path d="M10.2222 9.74064H9.95553V5.89417C9.95553 4.29789 8.79664 2.97765 7.28886 2.75817V2.31922C7.28886 2.0692 7.08997 1.8667 6.84442 1.8667C6.59886 1.8667 6.39997 2.0692 6.39997 2.31922V2.75817C4.8922 2.97765 3.73331 4.29789 3.73331 5.89417V9.74064H3.46664C3.26997 9.74064 3.11108 9.90242 3.11108 10.1027V10.4647C3.11108 10.5145 3.15108 10.5552 3.19997 10.5552H5.59997C5.59997 11.2543 6.15775 11.8223 6.84442 11.8223C7.53108 11.8223 8.08886 11.2543 8.08886 10.5552H10.4889C10.5378 10.5552 10.5778 10.5145 10.5778 10.4647V10.1027C10.5778 9.90242 10.4189 9.74064 10.2222 9.74064ZM6.84442 11.0982C6.54997 11.0982 6.31108 10.855 6.31108 10.5552H7.37775C7.37775 10.855 7.13886 11.0982 6.84442 11.0982Z" fill="#FED24F"/>
<rect x="3.73328" y="9.02222" width="6.22222" height="0.622222" fill="white"/>
</svg>
