<svg width="5" height="14" viewBox="0 0 5 14" fill="none" xmlns="http://www.w3.org/2000/svg">
<path d="M0.171657 13.4299C0.225708 13.5149 0.289918 13.5823 0.36061 13.6283C0.431302 13.6743 0.507086 13.698 0.583623 13.698C0.660159 13.698 0.735943 13.6743 0.806635 13.6283C0.877327 13.5823 0.941536 13.5149 0.995587 13.4299L4.86387 7.36372C4.90702 7.29618 4.94126 7.21596 4.96462 7.12765C4.98798 7.03935 5 6.94468 5 6.84907C5 6.75347 4.98798 6.6588 4.96462 6.57049C4.94126 6.48218 4.90702 6.40197 4.86387 6.33443L0.995588 0.268224C0.767494 -0.08947 0.399752 -0.08947 0.171658 0.268224C-0.0564356 0.625919 -0.0564356 1.20261 0.171658 1.5603L3.54186 6.85272L0.167003 12.1451C-0.0564356 12.4955 -0.0564364 13.0795 0.171657 13.4299Z" fill="white"/>
</svg>
