<svg width="15" height="15" viewBox="0 0 15 15" fill="none" xmlns="http://www.w3.org/2000/svg">
<path d="M11.6731 12.2544L8.10125 8.68189C7.33487 9.22674 6.39177 9.46379 5.45885 9.34606C4.52593 9.22832 3.67128 8.76439 3.0643 8.04622C2.45732 7.32805 2.14229 6.40804 2.18167 5.46855C2.22104 4.52905 2.61193 3.63863 3.27688 2.97376C3.94165 2.30861 4.83206 1.9175 5.77163 1.87795C6.71119 1.83841 7.63132 2.15332 8.34962 2.76027C9.06793 3.36722 9.53197 4.2219 9.64977 5.15489C9.76757 6.08788 9.53053 7.03107 8.98563 7.79751L12.5575 11.37L11.6738 12.2538L11.6731 12.2544V12.2544ZM5.92813 3.12501C5.35317 3.12488 4.79573 3.32293 4.34974 3.68581C3.90375 4.04868 3.59647 4.55419 3.47968 5.11716C3.36288 5.68013 3.4437 6.26616 3.70852 6.7765C3.97335 7.28685 4.40599 7.69031 4.93355 7.91891C5.46111 8.14752 6.05135 8.18729 6.60481 8.03153C7.15827 7.87577 7.64113 7.534 7.97203 7.0638C8.30293 6.5936 8.46164 6.02371 8.42143 5.45016C8.38121 4.8766 8.14453 4.33444 7.75125 3.91501L8.12938 4.29001L7.70313 3.86501L7.69563 3.85751C7.46411 3.62457 7.18868 3.43988 6.88528 3.31415C6.58188 3.18841 6.25655 3.12412 5.92813 3.12501V3.12501Z" fill="#878787"/>
</svg>
