<svg width="15" height="15" viewBox="0 0 15 15" fill="none" xmlns="http://www.w3.org/2000/svg">
<path d="M11.6731 12.2544L8.10122 8.68189C7.33484 9.22674 6.39174 9.46379 5.45882 9.34606C4.5259 9.22832 3.67125 8.76439 3.06427 8.04622C2.45729 7.32805 2.14226 6.40804 2.18164 5.46855C2.22101 4.52905 2.6119 3.63863 3.27685 2.97376C3.94162 2.30861 4.83203 1.9175 5.77159 1.87795C6.71116 1.83841 7.63129 2.15332 8.34959 2.76027C9.0679 3.36722 9.53194 4.2219 9.64974 5.15489C9.76754 6.08788 9.5305 7.03107 8.9856 7.79751L12.5575 11.37L11.6737 12.2538L11.6731 12.2544V12.2544ZM5.9281 3.12501C5.35314 3.12488 4.7957 3.32293 4.34971 3.68581C3.90372 4.04868 3.59644 4.55419 3.47965 5.11716C3.36285 5.68013 3.44367 6.26616 3.70849 6.7765C3.97332 7.28685 4.40596 7.69031 4.93352 7.91891C5.46108 8.14752 6.05132 8.18729 6.60478 8.03153C7.15824 7.87577 7.6411 7.534 7.972 7.0638C8.3029 6.5936 8.46161 6.02371 8.4214 5.45016C8.38118 4.8766 8.1445 4.33444 7.75122 3.91501L8.12935 4.29001L7.7031 3.86501L7.6956 3.85751C7.46408 3.62457 7.18865 3.43988 6.88525 3.31415C6.58185 3.18841 6.25652 3.12412 5.9281 3.12501V3.12501Z" fill="#878787"/>
</svg>
