<svg width="14" height="14" viewBox="0 0 14 14" fill="none" xmlns="http://www.w3.org/2000/svg">
<circle cx="7" cy="7" r="7" fill="#EF4948"/>
<path d="M10.2222 9.74058H9.95553V5.89411C9.95553 4.29783 8.79664 2.97759 7.28886 2.75811V2.31916C7.28886 2.06914 7.08997 1.86664 6.84442 1.86664C6.59886 1.86664 6.39997 2.06914 6.39997 2.31916V2.75811C4.8922 2.97759 3.73331 4.29783 3.73331 5.89411V9.74058H3.46664C3.26997 9.74058 3.11108 9.90236 3.11108 10.1026V10.4646C3.11108 10.5144 3.15108 10.5551 3.19997 10.5551H5.59997C5.59997 11.2543 6.15775 11.8222 6.84442 11.8222C7.53108 11.8222 8.08886 11.2543 8.08886 10.5551H10.4889C10.5378 10.5551 10.5778 10.5144 10.5778 10.4646V10.1026C10.5778 9.90236 10.4189 9.74058 10.2222 9.74058ZM6.84442 11.0982C6.54997 11.0982 6.31108 10.8549 6.31108 10.5551H7.37775C7.37775 10.8549 7.13886 11.0982 6.84442 11.0982Z" fill="#FED24F"/>
<rect x="3.73328" y="9.02222" width="6.22222" height="0.622222" fill="white"/>
</svg>
