<svg width="15" height="15" viewBox="0 0 15 15" fill="none" xmlns="http://www.w3.org/2000/svg">
<path d="M11.6731 12.2543L8.10122 8.68177C7.33484 9.22662 6.39174 9.46367 5.45882 9.34593C4.5259 9.2282 3.67125 8.76427 3.06427 8.0461C2.45729 7.32792 2.14226 6.40792 2.18164 5.46843C2.22101 4.52893 2.6119 3.63851 3.27685 2.97364C3.94162 2.30849 4.83203 1.91737 5.77159 1.87783C6.71116 1.83829 7.63129 2.1532 8.34959 2.76015C9.0679 3.3671 9.53194 4.22178 9.64974 5.15477C9.76754 6.08775 9.5305 7.03095 8.9856 7.79739L12.5575 11.3699L11.6737 12.2536L11.6731 12.2543V12.2543ZM5.9281 3.12489C5.35314 3.12476 4.7957 3.32281 4.34971 3.68568C3.90372 4.04856 3.59644 4.55406 3.47965 5.11704C3.36285 5.68001 3.44367 6.26604 3.70849 6.77638C3.97332 7.28672 4.40596 7.69019 4.93352 7.91879C5.46108 8.14739 6.05132 8.18717 6.60478 8.03141C7.15824 7.87565 7.6411 7.53387 7.972 7.06367C8.3029 6.59347 8.46161 6.02359 8.4214 5.45003C8.38118 4.87648 8.1445 4.33432 7.75122 3.91489L8.12935 4.28989L7.7031 3.86489L7.6956 3.85739C7.46408 3.62445 7.18865 3.43976 6.88525 3.31403C6.58185 3.18829 6.25652 3.124 5.9281 3.12489V3.12489Z" fill="#878787"/>
</svg>
